{
    "asset" : {
        "generator" : "Khronos glTF Blender I/O v0.9.4",
        "version" : "2.0"
    },
    "extensionsUsed" : [
        "KHR_materials_unlit"
    ],
    "extensionsRequired" : [
        "KHR_materials_unlit"
    ],
    "scene" : 0,
    "scenes" : [
        {
            "nodes" : [
                0
            ],
            "name" : "Scene"
        }
    ],
    "nodes" : [
        {
            "mesh" : 0,
            "name" : "Apartment"
        }
    ],
    "materials" : [
        {
            "pbrMetallicRoughness" : {
                "baseColorTexture" : {
                    "texCoord" : 0,
                    "index" : 0
                }
            },
            "extensions" : {
                "KHR_materials_unlit" : {}
            },
            "name" : "Material"
        }
    ],
    "meshes" : [
        {
            "primitives" : [
                {
                    "material" : 0,
                    "attributes" : {
                        "TEXCOORD_0" : 0,
                        "NORMAL" : 1,
                        "POSITION" : 2
                    },
                    "indices" : 3
                }
            ],
            "name" : "Cube"
        }
    ],
    "textures" : [
        {
            "source" : 0,
            "sampler" : 0
        }
    ],
    "images" : [
        {
            "mimeType" : "image/jpeg",
            "bufferView" : 4,
            "name" : "apartment.jpg"
        }
    ],
    "accessors" : [
        {
            "componentType" : 5126,
            "count" : 80,
            "bufferView" : 0,
            "type" : "VEC2"
        },
        {
            "componentType" : 5126,
            "count" : 80,
            "bufferView" : 1,
            "type" : "VEC3"
        },
        {
            "componentType" : 5126,
            "max" : [
                5.059162139892578,
                2.6885263919830322,
                2.3272016048431396
            ],
            "count" : 80,
            "min" : [
                -2.226044178009033,
                -1.737056851387024,
                -5.030939102172852
            ],
            "bufferView" : 2,
            "type" : "VEC3"
        },
        {
            "componentType" : 5123,
            "count" : 120,
            "bufferView" : 3,
            "type" : "SCALAR"
        }
    ],
    "bufferViews" : [
        {
            "byteOffset" : 0,
            "buffer" : 0,
            "byteLength" : 640
        },
        {
            "byteOffset" : 640,
            "buffer" : 0,
            "byteLength" : 960
        },
        {
            "byteOffset" : 1600,
            "buffer" : 0,
            "byteLength" : 960
        },
        {
            "byteOffset" : 2560,
            "buffer" : 0,
            "byteLength" : 240
        },
        {
            "byteOffset" : 2800,
            "buffer" : 0,
            "byteLength" : 1960703
        }
    ],
    "samplers" : [
        {
            "minFilter" : 9986,
            "wrapS" : 10497,
            "wrapT" : 10497,
            "magFilter" : 9729
        }
    ],
    "buffers" : [
        {
            "byteLength" : 1963504,
            "uri" : "data:application/octet-stream;base64,"
        }
    ]
}
