{
    "asset" : {
        "generator" : "Khronos glTF Blender I/O v0.9.4",
        "version" : "2.0"
    },
    "extensionsUsed" : [
        "KHR_materials_unlit"
    ],
    "extensionsRequired" : [
        "KHR_materials_unlit"
    ],
    "scene" : 0,
    "scenes" : [
        {
            "nodes" : [
                0
            ],
            "name" : "Scene"
        }
    ],
    "nodes" : [
        {
            "mesh" : 0,
            "name" : "Subway"
        }
    ],
    "animations" : [
        {
            "channels" : [
                {
                    "sampler" : 0,
                    "target" : {
                        "node" : 0,
                        "path" : "rotation"
                    }
                }
            ],
            "samplers" : [
                {
                    "input" : 4,
                    "output" : 5,
                    "interpolation" : "LINEAR"
                }
            ],
            "name" : "SubwayAction"
        }
    ],
    "materials" : [
        {
            "extensions" : {
                "KHR_materials_unlit" : {}
            },
            "pbrMetallicRoughness" : {
                "baseColorTexture" : {
                    "index" : 0,
                    "texCoord" : 0
                }
            },
            "name" : "Material"
        }
    ],
    "meshes" : [
        {
            "primitives" : [
                {
                    "material" : 0,
                    "attributes" : {
                        "NORMAL" : 0,
                        "POSITION" : 1,
                        "TEXCOORD_0" : 2
                    },
                    "indices" : 3
                }
            ],
            "name" : "Cube"
        }
    ],
    "textures" : [
        {
            "sampler" : 0,
            "source" : 0
        }
    ],
    "images" : [
        {
            "mimeType" : "image/jpeg",
            "bufferView" : 4,
            "name" : "subway.jpg"
        }
    ],
    "accessors" : [
        {
            "bufferView" : 0,
            "count" : 68,
            "componentType" : 5126,
            "type" : "VEC3"
        },
        {
            "min" : [
                -1.2713812589645386,
                -1.2933566570281982,
                -2.8885250091552734
            ],
            "count" : 68,
            "max" : [
                1.2615947723388672,
                1.2353142499923706,
                2.88852596282959
            ],
            "bufferView" : 1,
            "componentType" : 5126,
            "type" : "VEC3"
        },
        {
            "bufferView" : 2,
            "count" : 68,
            "componentType" : 5126,
            "type" : "VEC2"
        },
        {
            "bufferView" : 3,
            "count" : 108,
            "componentType" : 5123,
            "type" : "SCALAR"
        },
        {
            "min" : [
                0
            ],
            "count" : 45,
            "max" : [
                1.8333333333333333
            ],
            "bufferView" : 5,
            "componentType" : 5126,
            "type" : "SCALAR"
        },
        {
            "bufferView" : 6,
            "count" : 45,
            "componentType" : 5126,
            "type" : "VEC4"
        }
    ],
    "bufferViews" : [
        {
            "byteLength" : 816,
            "byteOffset" : 0,
            "buffer" : 0
        },
        {
            "byteLength" : 816,
            "byteOffset" : 816,
            "buffer" : 0
        },
        {
            "byteLength" : 544,
            "byteOffset" : 1632,
            "buffer" : 0
        },
        {
            "byteLength" : 216,
            "byteOffset" : 2176,
            "buffer" : 0
        },
        {
            "byteLength" : 376668,
            "byteOffset" : 2392,
            "buffer" : 0
        },
        {
            "byteLength" : 180,
            "byteOffset" : 379060,
            "buffer" : 0
        },
        {
            "byteLength" : 720,
            "byteOffset" : 379240,
            "buffer" : 0
        }
    ],
    "samplers" : [
        {
            "minFilter" : 9986,
            "wrapS" : 10497,
            "magFilter" : 9729,
            "wrapT" : 10497
        }
    ],
    "buffers" : [
        {
            "byteLength" : 379960,
            "uri" : "data:application/octet-stream;base64,"
        }
    ]
}
